<?xml version="1.0" encoding="utf-8" standalone="no"?>
<!DOCTYPE svg PUBLIC "-//W3C//DTD SVG 1.1//EN"
  "http://www.w3.org/Graphics/SVG/1.1/DTD/svg11.dtd">
<svg xmlns:xlink="http://www.w3.org/1999/xlink" width="567.75625pt" height="350.674375pt" viewBox="0 0 567.75625 350.674375" xmlns="http://www.w3.org/2000/svg" version="1.1">
 <metadata>
  <rdf:RDF xmlns:dc="http://purl.org/dc/elements/1.1/" xmlns:cc="http://creativecommons.org/ns#" xmlns:rdf="http://www.w3.org/1999/02/22-rdf-syntax-ns#">
   <cc:Work>
    <dc:type rdf:resource="http://purl.org/dc/dcmitype/StillImage"/>
    <dc:date>2026-05-05T03:08:26.541626</dc:date>
    <dc:format>image/svg+xml</dc:format>
    <dc:creator>
     <cc:Agent>
      <dc:title>Matplotlib v3.10.0, https://matplotlib.org/</dc:title>
     </cc:Agent>
    </dc:creator>
   </cc:Work>
  </rdf:RDF>
 </metadata>
 <defs>
  <style type="text/css">*{stroke-linejoin: round; stroke-linecap: butt}</style>
 </defs>
 <g id="figure_1">
  <g id="patch_1">
   <path d="M 0 350.674375 
L 567.75625 350.674375 
L 567.75625 0 
L 0 0 
z
" style="fill: #ffffff"/>
  </g>
  <g id="axes_1">
   <g id="patch_2">
    <path d="M 43.78125 313.118125 
L 560.55625 313.118125 
L 560.55625 22.318125 
L 43.78125 22.318125 
z
" style="fill: #ffffff"/>
   </g>
   <g id="matplotlib.axis_1">
    <g id="xtick_1">
     <g id="line2d_1">
      <defs>
       <path id="ma3f9a3e54e" d="M 0 0 
L 0 3.5 
" style="stroke: #000000; stroke-width: 0.8"/>
      </defs>
      <g>
       <use xlink:href="#ma3f9a3e54e" x="52.116331" y="313.118125" style="stroke: #000000; stroke-width: 0.8"/>
      </g>
     </g>
     <g id="text_1">
      <text style="font-size: 10px; font-family: 'DejaVu Sans', 'Bitstream Vera Sans', 'Computer Modern Sans Serif', 'Lucida Grande', 'Verdana', 'Geneva', 'Lucid', 'Arial', 'Helvetica', 'Avant Garde', sans-serif; text-anchor: middle" x="52.116331" y="327.716562" transform="rotate(-0 52.116331 327.716562)">0</text>
     </g>
    </g>
    <g id="xtick_2">
     <g id="line2d_2">
      <g>
       <use xlink:href="#ma3f9a3e54e" x="127.889791" y="313.118125" style="stroke: #000000; stroke-width: 0.8"/>
      </g>
     </g>
     <g id="text_2">
      <text style="font-size: 10px; font-family: 'DejaVu Sans', 'Bitstream Vera Sans', 'Computer Modern Sans Serif', 'Lucida Grande', 'Verdana', 'Geneva', 'Lucid', 'Arial', 'Helvetica', 'Avant Garde', sans-serif; text-anchor: middle" x="127.889791" y="327.716562" transform="rotate(-0 127.889791 327.716562)">5</text>
     </g>
    </g>
    <g id="xtick_3">
     <g id="line2d_3">
      <g>
       <use xlink:href="#ma3f9a3e54e" x="203.663251" y="313.118125" style="stroke: #000000; stroke-width: 0.8"/>
      </g>
     </g>
     <g id="text_3">
      <text style="font-size: 10px; font-family: 'DejaVu Sans', 'Bitstream Vera Sans', 'Computer Modern Sans Serif', 'Lucida Grande', 'Verdana', 'Geneva', 'Lucid', 'Arial', 'Helvetica', 'Avant Garde', sans-serif; text-anchor: middle" x="203.663251" y="327.716562" transform="rotate(-0 203.663251 327.716562)">10</text>
     </g>
    </g>
    <g id="xtick_4">
     <g id="line2d_4">
      <g>
       <use xlink:href="#ma3f9a3e54e" x="279.436712" y="313.118125" style="stroke: #000000; stroke-width: 0.8"/>
      </g>
     </g>
     <g id="text_4">
      <text style="font-size: 10px; font-family: 'DejaVu Sans', 'Bitstream Vera Sans', 'Computer Modern Sans Serif', 'Lucida Grande', 'Verdana', 'Geneva', 'Lucid', 'Arial', 'Helvetica', 'Avant Garde', sans-serif; text-anchor: middle" x="279.436712" y="327.716562" transform="rotate(-0 279.436712 327.716562)">15</text>
     </g>
    </g>
    <g id="xtick_5">
     <g id="line2d_5">
      <g>
       <use xlink:href="#ma3f9a3e54e" x="355.210172" y="313.118125" style="stroke: #000000; stroke-width: 0.8"/>
      </g>
     </g>
     <g id="text_5">
      <text style="font-size: 10px; font-family: 'DejaVu Sans', 'Bitstream Vera Sans', 'Computer Modern Sans Serif', 'Lucida Grande', 'Verdana', 'Geneva', 'Lucid', 'Arial', 'Helvetica', 'Avant Garde', sans-serif; text-anchor: middle" x="355.210172" y="327.716562" transform="rotate(-0 355.210172 327.716562)">20</text>
     </g>
    </g>
    <g id="xtick_6">
     <g id="line2d_6">
      <g>
       <use xlink:href="#ma3f9a3e54e" x="430.983633" y="313.118125" style="stroke: #000000; stroke-width: 0.8"/>
      </g>
     </g>
     <g id="text_6">
      <text style="font-size: 10px; font-family: 'DejaVu Sans', 'Bitstream Vera Sans', 'Computer Modern Sans Serif', 'Lucida Grande', 'Verdana', 'Geneva', 'Lucid', 'Arial', 'Helvetica', 'Avant Garde', sans-serif; text-anchor: middle" x="430.983633" y="327.716562" transform="rotate(-0 430.983633 327.716562)">25</text>
     </g>
    </g>
    <g id="xtick_7">
     <g id="line2d_7">
      <g>
       <use xlink:href="#ma3f9a3e54e" x="506.757093" y="313.118125" style="stroke: #000000; stroke-width: 0.8"/>
      </g>
     </g>
     <g id="text_7">
      <text style="font-size: 10px; font-family: 'DejaVu Sans', 'Bitstream Vera Sans', 'Computer Modern Sans Serif', 'Lucida Grande', 'Verdana', 'Geneva', 'Lucid', 'Arial', 'Helvetica', 'Avant Garde', sans-serif; text-anchor: middle" x="506.757093" y="327.716562" transform="rotate(-0 506.757093 327.716562)">30</text>
     </g>
    </g>
    <g id="text_8">
     <text style="font-size: 10px; font-family: 'DejaVu Sans', 'Bitstream Vera Sans', 'Computer Modern Sans Serif', 'Lucida Grande', 'Verdana', 'Geneva', 'Lucid', 'Arial', 'Helvetica', 'Avant Garde', sans-serif; text-anchor: middle" x="302.16875" y="341.394687" transform="rotate(-0 302.16875 341.394687)">Capacity / Components</text>
    </g>
   </g>
   <g id="matplotlib.axis_2">
    <g id="ytick_1">
     <g id="line2d_8">
      <defs>
       <path id="mf74ebe0128" d="M 0 0 
L -3.5 0 
" style="stroke: #000000; stroke-width: 0.8"/>
      </defs>
      <g>
       <use xlink:href="#mf74ebe0128" x="43.78125" y="313.118125" style="stroke: #000000; stroke-width: 0.8"/>
      </g>
     </g>
     <g id="text_9">
      <text style="font-size: 10px; font-family: 'DejaVu Sans', 'Bitstream Vera Sans', 'Computer Modern Sans Serif', 'Lucida Grande', 'Verdana', 'Geneva', 'Lucid', 'Arial', 'Helvetica', 'Avant Garde', sans-serif; text-anchor: end" x="36.78125" y="316.917344" transform="rotate(-0 36.78125 316.917344)">0.0</text>
     </g>
    </g>
    <g id="ytick_2">
     <g id="line2d_9">
      <g>
       <use xlink:href="#mf74ebe0128" x="43.78125" y="257.727649" style="stroke: #000000; stroke-width: 0.8"/>
      </g>
     </g>
     <g id="text_10">
      <text style="font-size: 10px; font-family: 'DejaVu Sans', 'Bitstream Vera Sans', 'Computer Modern Sans Serif', 'Lucida Grande', 'Verdana', 'Geneva', 'Lucid', 'Arial', 'Helvetica', 'Avant Garde', sans-serif; text-anchor: end" x="36.78125" y="261.526868" transform="rotate(-0 36.78125 261.526868)">0.2</text>
     </g>
    </g>
    <g id="ytick_3">
     <g id="line2d_10">
      <g>
       <use xlink:href="#mf74ebe0128" x="43.78125" y="202.337173" style="stroke: #000000; stroke-width: 0.8"/>
      </g>
     </g>
     <g id="text_11">
      <text style="font-size: 10px; font-family: 'DejaVu Sans', 'Bitstream Vera Sans', 'Computer Modern Sans Serif', 'Lucida Grande', 'Verdana', 'Geneva', 'Lucid', 'Arial', 'Helvetica', 'Avant Garde', sans-serif; text-anchor: end" x="36.78125" y="206.136391" transform="rotate(-0 36.78125 206.136391)">0.4</text>
     </g>
    </g>
    <g id="ytick_4">
     <g id="line2d_11">
      <g>
       <use xlink:href="#mf74ebe0128" x="43.78125" y="146.946696" style="stroke: #000000; stroke-width: 0.8"/>
      </g>
     </g>
     <g id="text_12">
      <text style="font-size: 10px; font-family: 'DejaVu Sans', 'Bitstream Vera Sans', 'Computer Modern Sans Serif', 'Lucida Grande', 'Verdana', 'Geneva', 'Lucid', 'Arial', 'Helvetica', 'Avant Garde', sans-serif; text-anchor: end" x="36.78125" y="150.745915" transform="rotate(-0 36.78125 150.745915)">0.6</text>
     </g>
    </g>
    <g id="ytick_5">
     <g id="line2d_12">
      <g>
       <use xlink:href="#mf74ebe0128" x="43.78125" y="91.55622" style="stroke: #000000; stroke-width: 0.8"/>
      </g>
     </g>
     <g id="text_13">
      <text style="font-size: 10px; font-family: 'DejaVu Sans', 'Bitstream Vera Sans', 'Computer Modern Sans Serif', 'Lucida Grande', 'Verdana', 'Geneva', 'Lucid', 'Arial', 'Helvetica', 'Avant Garde', sans-serif; text-anchor: end" x="36.78125" y="95.355439" transform="rotate(-0 36.78125 95.355439)">0.8</text>
     </g>
    </g>
    <g id="ytick_6">
     <g id="line2d_13">
      <g>
       <use xlink:href="#mf74ebe0128" x="43.78125" y="36.165744" style="stroke: #000000; stroke-width: 0.8"/>
      </g>
     </g>
     <g id="text_14">
      <text style="font-size: 10px; font-family: 'DejaVu Sans', 'Bitstream Vera Sans', 'Computer Modern Sans Serif', 'Lucida Grande', 'Verdana', 'Geneva', 'Lucid', 'Arial', 'Helvetica', 'Avant Garde', sans-serif; text-anchor: end" x="36.78125" y="39.964963" transform="rotate(-0 36.78125 39.964963)">1.0</text>
     </g>
    </g>
    <g id="text_15">
     <text style="font-size: 10px; font-family: 'DejaVu Sans', 'Bitstream Vera Sans', 'Computer Modern Sans Serif', 'Lucida Grande', 'Verdana', 'Geneva', 'Lucid', 'Arial', 'Helvetica', 'Avant Garde', sans-serif; text-anchor: middle" x="14.798438" y="167.718125" transform="rotate(-90 14.798438 167.718125)">CGCS</text>
    </g>
   </g>
   <g id="line2d_14">
    <path d="M 67.271023 295.808601 
L 82.425715 271.575268 
L 97.580407 243.88003 
L 112.735099 214.20656 
L 127.889791 183.296696 
L 143.044483 151.562569 
L 158.199175 119.251458 
L 173.353867 86.520722 
L 188.508559 197.7213 
L 203.663251 235.003351 
L 218.817944 253.771186 
L 233.972636 265.113046 
" clip-path="url(#p678c8578de)" style="fill: none; stroke: #1f77b4; stroke-width: 1.5; stroke-linecap: square"/>
    <defs>
     <path id="m5040e214e7" d="M 0 3 
C 0.795609 3 1.55874 2.683901 2.12132 2.12132 
C 2.683901 1.55874 3 0.795609 3 0 
C 3 -0.795609 2.683901 -1.55874 2.12132 -2.12132 
C 1.55874 -2.683901 0.795609 -3 0 -3 
C -0.795609 -3 -1.55874 -2.683901 -2.12132 -2.12132 
C -2.683901 -1.55874 -3 -0.795609 -3 0 
C -3 0.795609 -2.683901 1.55874 -2.12132 2.12132 
C -1.55874 2.683901 -0.795609 3 0 3 
z
" style="stroke: #1f77b4"/>
    </defs>
    <g clip-path="url(#p678c8578de)">
     <use xlink:href="#m5040e214e7" x="67.271023" y="295.808601" style="fill: #1f77b4; stroke: #1f77b4"/>
     <use xlink:href="#m5040e214e7" x="82.425715" y="271.575268" style="fill: #1f77b4; stroke: #1f77b4"/>
     <use xlink:href="#m5040e214e7" x="97.580407" y="243.88003" style="fill: #1f77b4; stroke: #1f77b4"/>
     <use xlink:href="#m5040e214e7" x="112.735099" y="214.20656" style="fill: #1f77b4; stroke: #1f77b4"/>
     <use xlink:href="#m5040e214e7" x="127.889791" y="183.296696" style="fill: #1f77b4; stroke: #1f77b4"/>
     <use xlink:href="#m5040e214e7" x="143.044483" y="151.562569" style="fill: #1f77b4; stroke: #1f77b4"/>
     <use xlink:href="#m5040e214e7" x="158.199175" y="119.251458" style="fill: #1f77b4; stroke: #1f77b4"/>
     <use xlink:href="#m5040e214e7" x="173.353867" y="86.520722" style="fill: #1f77b4; stroke: #1f77b4"/>
     <use xlink:href="#m5040e214e7" x="188.508559" y="197.7213" style="fill: #1f77b4; stroke: #1f77b4"/>
     <use xlink:href="#m5040e214e7" x="203.663251" y="235.003351" style="fill: #1f77b4; stroke: #1f77b4"/>
     <use xlink:href="#m5040e214e7" x="218.817944" y="253.771186" style="fill: #1f77b4; stroke: #1f77b4"/>
     <use xlink:href="#m5040e214e7" x="233.972636" y="265.113046" style="fill: #1f77b4; stroke: #1f77b4"/>
    </g>
   </g>
   <g id="line2d_15">
    <path d="M 173.353867 300.439954 
L 233.972636 309.401933 
L 294.591404 311.907488 
L 415.828941 312.682862 
L 537.066477 312.909462 
" clip-path="url(#p678c8578de)" style="fill: none; stroke: #ff7f0e; stroke-width: 1.5; stroke-linecap: square"/>
    <defs>
     <path id="m1fec95f6da" d="M 0 3 
C 0.795609 3 1.55874 2.683901 2.12132 2.12132 
C 2.683901 1.55874 3 0.795609 3 0 
C 3 -0.795609 2.683901 -1.55874 2.12132 -2.12132 
C 1.55874 -2.683901 0.795609 -3 0 -3 
C -0.795609 -3 -1.55874 -2.683901 -2.12132 -2.12132 
C -2.683901 -1.55874 -3 -0.795609 -3 0 
C -3 0.795609 -2.683901 1.55874 -2.12132 2.12132 
C -1.55874 2.683901 -0.795609 3 0 3 
z
" style="stroke: #ff7f0e"/>
    </defs>
    <g clip-path="url(#p678c8578de)">
     <use xlink:href="#m1fec95f6da" x="173.353867" y="300.439954" style="fill: #ff7f0e; stroke: #ff7f0e"/>
     <use xlink:href="#m1fec95f6da" x="233.972636" y="309.401933" style="fill: #ff7f0e; stroke: #ff7f0e"/>
     <use xlink:href="#m1fec95f6da" x="294.591404" y="311.907488" style="fill: #ff7f0e; stroke: #ff7f0e"/>
     <use xlink:href="#m1fec95f6da" x="415.828941" y="312.682862" style="fill: #ff7f0e; stroke: #ff7f0e"/>
     <use xlink:href="#m1fec95f6da" x="537.066477" y="312.909462" style="fill: #ff7f0e; stroke: #ff7f0e"/>
    </g>
   </g>
   <g id="line2d_16">
    <path d="M 173.353867 237.092913 
L 233.972636 305.775414 
L 294.591404 311.079932 
L 415.828941 312.553964 
L 537.066477 312.853936 
" clip-path="url(#p678c8578de)" style="fill: none; stroke: #2ca02c; stroke-width: 1.5; stroke-linecap: square"/>
    <defs>
     <path id="m02ff36b64a" d="M 0 3 
C 0.795609 3 1.55874 2.683901 2.12132 2.12132 
C 2.683901 1.55874 3 0.795609 3 0 
C 3 -0.795609 2.683901 -1.55874 2.12132 -2.12132 
C 1.55874 -2.683901 0.795609 -3 0 -3 
C -0.795609 -3 -1.55874 -2.683901 -2.12132 -2.12132 
C -2.683901 -1.55874 -3 -0.795609 -3 0 
C -3 0.795609 -2.683901 1.55874 -2.12132 2.12132 
C -1.55874 2.683901 -0.795609 3 0 3 
z
" style="stroke: #2ca02c"/>
    </defs>
    <g clip-path="url(#p678c8578de)">
     <use xlink:href="#m02ff36b64a" x="173.353867" y="237.092913" style="fill: #2ca02c; stroke: #2ca02c"/>
     <use xlink:href="#m02ff36b64a" x="233.972636" y="305.775414" style="fill: #2ca02c; stroke: #2ca02c"/>
     <use xlink:href="#m02ff36b64a" x="294.591404" y="311.079932" style="fill: #2ca02c; stroke: #2ca02c"/>
     <use xlink:href="#m02ff36b64a" x="415.828941" y="312.553964" style="fill: #2ca02c; stroke: #2ca02c"/>
     <use xlink:href="#m02ff36b64a" x="537.066477" y="312.853936" style="fill: #2ca02c; stroke: #2ca02c"/>
    </g>
   </g>
   <g id="line2d_17">
    <path d="M 173.353867 232.685773 
L 233.972636 281.811003 
L 294.591404 308.923738 
L 415.828941 312.227882 
L 537.066477 312.750312 
" clip-path="url(#p678c8578de)" style="fill: none; stroke: #d62728; stroke-width: 1.5; stroke-linecap: square"/>
    <defs>
     <path id="ma8a8ffd184" d="M 0 3 
C 0.795609 3 1.55874 2.683901 2.12132 2.12132 
C 2.683901 1.55874 3 0.795609 3 0 
C 3 -0.795609 2.683901 -1.55874 2.12132 -2.12132 
C 1.55874 -2.683901 0.795609 -3 0 -3 
C -0.795609 -3 -1.55874 -2.683901 -2.12132 -2.12132 
C -2.683901 -1.55874 -3 -0.795609 -3 0 
C -3 0.795609 -2.683901 1.55874 -2.12132 2.12132 
C -1.55874 2.683901 -0.795609 3 0 3 
z
" style="stroke: #d62728"/>
    </defs>
    <g clip-path="url(#p678c8578de)">
     <use xlink:href="#ma8a8ffd184" x="173.353867" y="232.685773" style="fill: #d62728; stroke: #d62728"/>
     <use xlink:href="#ma8a8ffd184" x="233.972636" y="281.811003" style="fill: #d62728; stroke: #d62728"/>
     <use xlink:href="#ma8a8ffd184" x="294.591404" y="308.923738" style="fill: #d62728; stroke: #d62728"/>
     <use xlink:href="#ma8a8ffd184" x="415.828941" y="312.227882" style="fill: #d62728; stroke: #d62728"/>
     <use xlink:href="#ma8a8ffd184" x="537.066477" y="312.750312" style="fill: #d62728; stroke: #d62728"/>
    </g>
   </g>
   <g id="line2d_18">
    <path d="M 43.78125 47.243839 
L 560.55625 47.243839 
" clip-path="url(#p678c8578de)" style="fill: none; stroke-dasharray: 5.55,2.4; stroke-dashoffset: 0; stroke: #1f77b4; stroke-opacity: 0.5; stroke-width: 1.5"/>
   </g>
   <g id="patch_3">
    <path d="M 43.78125 313.118125 
L 43.78125 22.318125 
" style="fill: none; stroke: #000000; stroke-width: 0.8; stroke-linejoin: miter; stroke-linecap: square"/>
   </g>
   <g id="patch_4">
    <path d="M 560.55625 313.118125 
L 560.55625 22.318125 
" style="fill: none; stroke: #000000; stroke-width: 0.8; stroke-linejoin: miter; stroke-linecap: square"/>
   </g>
   <g id="patch_5">
    <path d="M 43.78125 313.118125 
L 560.55625 313.118125 
" style="fill: none; stroke: #000000; stroke-width: 0.8; stroke-linejoin: miter; stroke-linecap: square"/>
   </g>
   <g id="patch_6">
    <path d="M 43.78125 22.318125 
L 560.55625 22.318125 
" style="fill: none; stroke: #000000; stroke-width: 0.8; stroke-linejoin: miter; stroke-linecap: square"/>
   </g>
   <g id="text_16">
    <text style="font-size: 12px; font-family: 'DejaVu Sans', 'Bitstream Vera Sans', 'Computer Modern Sans Serif', 'Lucida Grande', 'Verdana', 'Geneva', 'Lucid', 'Arial', 'Helvetica', 'Avant Garde', sans-serif; text-anchor: middle" x="302.16875" y="16.318125" transform="rotate(-0 302.16875 16.318125)">CGCS vs Capacity</text>
   </g>
   <g id="legend_1">
    <g id="line2d_19">
     <path d="M 463.7625 239.825937 
L 473.7625 239.825937 
L 483.7625 239.825937 
" style="fill: none; stroke: #1f77b4; stroke-width: 1.5; stroke-linecap: square"/>
     <g>
      <use xlink:href="#m5040e214e7" x="473.7625" y="239.825937" style="fill: #1f77b4; stroke: #1f77b4"/>
     </g>
    </g>
    <g id="text_17">
     <text style="font-size: 10px; font-family: 'DejaVu Sans', 'Bitstream Vera Sans', 'Computer Modern Sans Serif', 'Lucida Grande', 'Verdana', 'Geneva', 'Lucid', 'Arial', 'Helvetica', 'Avant Garde', sans-serif; text-anchor: start" x="491.7625" y="243.325937" transform="rotate(-0 491.7625 243.325937)">NMF</text>
    </g>
    <g id="line2d_20">
     <path d="M 463.7625 254.504062 
L 473.7625 254.504062 
L 483.7625 254.504062 
" style="fill: none; stroke: #ff7f0e; stroke-width: 1.5; stroke-linecap: square"/>
     <g>
      <use xlink:href="#m1fec95f6da" x="473.7625" y="254.504062" style="fill: #ff7f0e; stroke: #ff7f0e"/>
     </g>
    </g>
    <g id="text_18">
     <text style="font-size: 10px; font-family: 'DejaVu Sans', 'Bitstream Vera Sans', 'Computer Modern Sans Serif', 'Lucida Grande', 'Verdana', 'Geneva', 'Lucid', 'Arial', 'Helvetica', 'Avant Garde', sans-serif; text-anchor: start" x="491.7625" y="258.004062" transform="rotate(-0 491.7625 258.004062)">SAE topk=1</text>
    </g>
    <g id="line2d_21">
     <path d="M 463.7625 269.182187 
L 473.7625 269.182187 
L 483.7625 269.182187 
" style="fill: none; stroke: #2ca02c; stroke-width: 1.5; stroke-linecap: square"/>
     <g>
      <use xlink:href="#m02ff36b64a" x="473.7625" y="269.182187" style="fill: #2ca02c; stroke: #2ca02c"/>
     </g>
    </g>
    <g id="text_19">
     <text style="font-size: 10px; font-family: 'DejaVu Sans', 'Bitstream Vera Sans', 'Computer Modern Sans Serif', 'Lucida Grande', 'Verdana', 'Geneva', 'Lucid', 'Arial', 'Helvetica', 'Avant Garde', sans-serif; text-anchor: start" x="491.7625" y="272.682187" transform="rotate(-0 491.7625 272.682187)">SAE topk=2</text>
    </g>
    <g id="line2d_22">
     <path d="M 463.7625 283.860312 
L 473.7625 283.860312 
L 483.7625 283.860312 
" style="fill: none; stroke: #d62728; stroke-width: 1.5; stroke-linecap: square"/>
     <g>
      <use xlink:href="#ma8a8ffd184" x="473.7625" y="283.860312" style="fill: #d62728; stroke: #d62728"/>
     </g>
    </g>
    <g id="text_20">
     <text style="font-size: 10px; font-family: 'DejaVu Sans', 'Bitstream Vera Sans', 'Computer Modern Sans Serif', 'Lucida Grande', 'Verdana', 'Geneva', 'Lucid', 'Arial', 'Helvetica', 'Avant Garde', sans-serif; text-anchor: start" x="491.7625" y="287.360312" transform="rotate(-0 491.7625 287.360312)">SAE topk=4</text>
    </g>
    <g id="line2d_23">
     <path d="M 463.7625 298.538437 
L 473.7625 298.538437 
L 483.7625 298.538437 
" style="fill: none; stroke-dasharray: 5.55,2.4; stroke-dashoffset: 0; stroke: #1f77b4; stroke-opacity: 0.5; stroke-width: 1.5"/>
    </g>
    <g id="text_21">
     <text style="font-size: 10px; font-family: 'DejaVu Sans', 'Bitstream Vera Sans', 'Computer Modern Sans Serif', 'Lucida Grande', 'Verdana', 'Geneva', 'Lucid', 'Arial', 'Helvetica', 'Avant Garde', sans-serif; text-anchor: start" x="491.7625" y="302.038437" transform="rotate(-0 491.7625 302.038437)">24/25 gate</text>
    </g>
   </g>
  </g>
 </g>
 <defs>
  <clipPath id="p678c8578de">
   <rect x="43.78125" y="22.318125" width="516.775" height="290.8"/>
  </clipPath>
 </defs>
</svg>
